<svg width="20" height="14" viewBox="0 0 20 14" fill="none" xmlns="http://www.w3.org/2000/svg">
<path d="M10.9749 0.199128C12.519 0.092916 13.8768 0.0398102 15.0482 0.0398102C18.3494 0.0398102 20 1.2015 20 3.52487C20 4.60027 19.7205 5.54289 19.1614 6.35275C18.8685 6.79088 18.4159 7.1427 17.8036 7.40823C17.1913 7.66048 16.4525 7.78661 15.5873 7.78661L8.7262 7.60738L13 14H11L10.9749 0.199128ZM15 0.5C13.9518 0.5 12.8519 0.407065 12 0.5L8.7262 7L11 7H15C16.8769 6.92034 18.4026 6.16688 18.4026 3.5647C18.4026 2.50259 18.0591 2.07089 17.5 1.5C16.9409 0.915837 16.0482 0.5 15 0.5Z" fill="white"/>
<path d="M8.14657 3.266C8.01306 1.88905 6.82871 0.880627 5.16062 0.466576C3.28093 0 2.73549 0.404931 2.13648 0.85633C1.53747 1.30773 1.23796 1.93172 1.23796 2.72831C1.23796 3.69749 1.74379 4.44761 2.75546 4.97866C3.02129 5.44524 3.18891 7.0697 3.18891 7.0697C3.18891 7.0697 5.32455 6.01422 5.87032 6.2532C6.41609 6.49218 6.91526 6.76434 7.36785 7.0697C7.82044 7.37506 8.1865 7.79991 8.46604 8.34424C8.74558 8.8753 8.88535 9.55903 8.88535 10.3954C8.88535 11.2186 8.6524 11.9222 8.1865 12.5064C7.7206 13.0906 7.15487 13.4889 6.4893 13.7013C5.83704 13.9004 5.07164 14 4.19309 14C2.55579 14 1.15809 13.5951 0 12.7852V10.3954C0.168854 11.1351 0.881964 12.5576 1.59507 13.2689C2.18813 13.8603 3.22136 13.8009 3.95348 13.8009C5.0317 13.8009 5.95019 13.5552 6.70894 13.064C7.481 12.5595 7.86703 11.8227 7.86703 10.8535C7.86703 9.79137 7.3612 8.96159 6.34953 8.36415C5.89694 8.09863 5.39777 7.85301 4.852 7.62731C4.31954 7.40161 3.95348 5.44524 3.95348 5.44524C3.95348 5.44524 2.18972 6.39924 1.73714 6.09388C0.725471 5.43006 0.219638 4.48743 0.219638 3.266C0.219638 2.29682 0.545767 1.51351 1.19802 0.916074C1.85028 0.305358 2.82867 0 4.13319 0C5.45101 0 6.78881 0.225699 8.14657 0.677098V3.266Z" fill="white"/>
</svg>
